<?xml version="1.0" encoding="UTF-8"?>
<svg id="Layer_1" data-name="Layer 1" xmlns="http://www.w3.org/2000/svg" viewBox="0 0 321.66 279.42">
  <defs>
    <style>
      .cls-1 {
        fill: #600;
      }
    </style>
  </defs>
  <path class="cls-1" d="m160.92,279.35c-25.54,0-51.08-.05-76.62.06-3.05.01-4.74-.97-6.27-3.63-20.41-35.51-40.94-70.95-61.43-106.4-5.28-9.13-10.52-18.28-15.86-27.38-.95-1.63-1-2.91-.03-4.57,14.81-25.5,29.57-51.04,44.33-76.58,11.14-19.28,22.27-38.55,33.34-57.87C79.57.87,80.9,0,83.45,0c51.66.08,103.32.08,154.99,0,2.36,0,3.69.68,4.9,2.78,18.28,31.84,36.65,63.63,55.02,95.42,7.4,12.81,14.78,25.62,22.3,38.36,1.31,2.22,1.36,3.88.06,6.13-15.6,26.86-31.1,53.79-46.63,80.69-10.14,17.55-20.33,35.07-30.39,52.67-1.4,2.45-3.01,3.39-5.89,3.37-25.62-.12-51.25-.07-76.87-.07h0Z"/>
</svg>