<?xml version="1.0" encoding="UTF-8"?>
<svg id="Layer_1" data-name="Layer 1" xmlns="http://www.w3.org/2000/svg" viewBox="0 0 247.96 270.1">
  <defs>
    <style>
      .cls-1 {
        fill: #600;
      }
    </style>
  </defs>
  <path class="cls-1" d="m93.75,269.99c-11.51,0-23.02-.13-34.52.07-4.5.08-6.43-1.96-7.49-6.06-11.76-45.59-23.62-91.15-35.45-136.72-5.22-20.12-10.39-40.25-15.69-60.35-1.3-4.92-.7-8.66,3.43-12.44C22.37,37.68,40.44,20.56,58.43,3.37c3.11-2.97,6.01-4.04,10.21-2.96,18.93,4.85,37.91,9.49,56.87,14.21,22.05,5.5,44.1,11.01,66.15,16.51,7.01,1.75,14.09,3.26,20.99,5.36,1.89.57,3.99,2.57,4.76,4.42,10.24,24.67,20.38,49.39,30.16,74.25.92,2.35.15,6.46-1.44,8.54-36.12,47.31-72.4,94.49-108.92,141.49-1.98,2.54-6.26,4.43-9.57,4.6-11.27.56-22.58.22-33.87.21Z"/>
</svg>